<?xml version="1.0" standalone="no"?>
<!DOCTYPE svg PUBLIC "-//W3C//DTD SVG 20010904//EN"
 "http://www.w3.org/TR/2001/REC-SVG-20010904/DTD/svg10.dtd">
<svg version="1.0" xmlns="http://www.w3.org/2000/svg"
 width="448.000000pt" height="532.000000pt" viewBox="0 0 448.000000 532.000000"
 preserveAspectRatio="xMidYMid meet">
<metadata>
Created by potrace 1.16, written by Peter Selinger 2001-2019
</metadata>
<g transform="translate(0.000000,532.000000) scale(0.100000,-0.100000)"
fill="#000000" stroke="none">
<path d="M58 5310 c-7 -17 -22 -290 -40 -735 -16 -392 -16 -2061 0 -2455 18
-454 34 -724 42 -733 24 -26 60 1158 60 1968 0 830 -38 2014 -62 1955z"/>
<path d="M337 5290 c-8 -42 -23 -340 -39 -785 -15 -424 -15 -2088 0 -2510 17
-465 33 -778 42 -794 8 -14 14 81 30 424 40 888 40 2347 -1 3260 -15 344 -23
450 -32 405z"/>
<path d="M2263 4938 c4 -211 7 -487 7 -614 l0 -232 97 -12 c473 -59 851 -389
973 -851 34 -128 39 -359 11 -497 -48 -233 -157 -430 -329 -594 -182 -174
-385 -270 -645 -306 l-117 -16 2 -776 3 -775 22 -41 c28 -53 91 -107 142 -122
52 -16 134 -15 174 1 18 8 403 269 857 581 576 395 839 582 872 617 61 67 115
171 133 256 12 57 15 254 15 1185 l0 1118 -693 730 -692 730 -419 0 -419 0 6
-382z"/>
<path d="M606 5099 c-11 -124 -26 -600 -37 -1194 -15 -814 -2 -1867 32 -2615
13 -293 23 -351 32 -200 56 867 64 2730 16 3800 -7 179 -14 249 -24 259 -11
11 -14 3 -19 -50z"/>
<path d="M876 4839 c-27 -245 -38 -2374 -17 -3089 15 -490 31 -865 40 -920 7
-40 8 -35 15 55 12 180 25 522 37 985 13 496 6 2383 -9 2758 -9 210 -10 214
-35 239 l-25 26 -6 -54z"/>
<path d="M1147 4513 c-4 -59 -9 -382 -12 -718 l-6 -610 25 80 c13 44 38 111
55 148 l31 69 -1 241 c0 133 -4 374 -8 536 l-8 293 -35 35 -35 35 -6 -109z"/>
<path d="M1417 4044 c-4 -169 -4 -310 -2 -313 3 -3 28 17 56 45 l51 49 -7 220
-6 220 -43 43 -43 43 -6 -307z"/>
<path d="M2133 3502 c-142 -51 -223 -166 -223 -317 0 -91 29 -163 93 -228 l51
-52 -49 -245 c-26 -135 -50 -251 -53 -257 -3 -10 58 -13 287 -13 l291 0 -5 23
c-3 12 -27 128 -54 257 l-48 235 47 45 c73 71 95 126 95 240 0 84 -3 101 -27
145 -58 111 -158 175 -282 182 -51 3 -85 -2 -123 -15z"/>
<path d="M1131 2350 c-1 -513 28 -1531 48 -1705 l7 -60 7 85 c18 220 47 1163
47 1541 l0 216 -30 66 c-17 37 -41 104 -54 149 l-25 83 0 -375z"/>
<path d="M1410 2048 c0 -314 30 -1301 47 -1558 6 -96 8 -101 14 -55 14 99 49
1155 49 1496 l0 155 -55 48 -55 47 0 -133z"/>
<path d="M1694 1684 c14 -608 27 -1048 36 -1229 5 -104 10 -208 11 -230 l1
-40 8 35 c14 62 49 1147 50 1526 l0 171 -47 19 c-27 11 -52 21 -56 23 -5 2 -6
-122 -3 -275z"/>
<path d="M1975 1594 c16 -730 27 -1128 35 -1304 5 -107 10 -217 10 -245 0 -33
4 -45 9 -35 15 27 51 1140 51 1593 0 219 -1 237 -17 237 -10 0 -35 3 -56 6
l-38 7 6 -259z"/>
</g>
</svg>
